<svg width="58" height="53" viewBox="0 0 58 53" fill="none" xmlns="http://www.w3.org/2000/svg">
<path d="M7.5 7.5V0H12.5V7.5H20V12.5H12.5V20H7.5V12.5H0V7.5M15 22.5V15H22.5V7.5H40L44.5 12.5H52.5C55.25 12.5 57.5 14.75 57.5 17.5V47.5C57.5 50.25 55.25 52.5 52.5 52.5H12.5C9.75 52.5 7.5 50.25 7.5 47.5V22.5M32.5 45C43.625 45 49.225 31.55 41.35 23.65C33.475 15.775 20 21.375 20 32.5C20 39.4 25.6 45 32.5 45ZM24.5 32.5C24.5 39.625 33.125 43.2 38.15 38.15C43.2 33.125 39.625 24.5 32.5 24.5C30.3803 24.5066 28.3493 25.3516 26.8504 26.8504C25.3516 28.3493 24.5066 30.3803 24.5 32.5Z" fill="#757575"/>
</svg>
