<svg width="20" height="20" viewBox="0 0 20 20" fill="none" xmlns="http://www.w3.org/2000/svg">
<path d="M6.66585 13.3333C5.05984 13.3282 3.50514 13.8986 2.28361 14.9413C1.06208 15.9839 0.254582 17.4298 0.00751185 19.0167C-0.0591548 19.5333 0.325845 20 0.847512 20H12.4842C13.0058 20 13.3925 19.5333 13.3242 19.0167C12.8292 15.75 9.99918 13.3333 6.66585 13.3333ZM6.66585 3.33333C7.77091 3.33333 8.83072 3.77232 9.61212 4.55372C10.3935 5.33512 10.8325 6.39493 10.8325 7.5C10.8325 8.60507 10.3935 9.66488 9.61212 10.4463C8.83072 11.2277 7.77091 11.6667 6.66585 11.6667C5.56078 11.6667 4.50097 11.2277 3.71957 10.4463C2.93817 9.66488 2.49918 8.60507 2.49918 7.5C2.49918 6.39493 2.93817 5.33512 3.71957 4.55372C4.50097 3.77232 5.56078 3.33333 6.66585 3.33333ZM15.8325 4.63505e-08C16.0276 -6.49769e-05 16.2164 0.0682857 16.3663 0.193149C16.5161 0.318012 16.6174 0.491477 16.6525 0.683333L16.6658 0.833333V3.33333H19.1658C19.3609 3.33327 19.5498 3.40162 19.6996 3.52648C19.8494 3.65135 19.9507 3.82481 19.9858 4.01667L19.9992 4.16667C19.9992 4.38768 19.9114 4.59964 19.7551 4.75592C19.5988 4.9122 19.3869 5 19.1658 5H16.6658V7.5C16.6662 7.70824 16.5886 7.90908 16.4483 8.06297C16.308 8.21686 16.1152 8.31264 15.9078 8.33146C15.7004 8.35027 15.4935 8.29076 15.3278 8.16463C15.1621 8.03851 15.0496 7.85491 15.0125 7.65L14.9992 7.5V5H12.4992C12.3041 5.00006 12.1152 4.93171 11.9654 4.80685C11.8156 4.68199 11.7143 4.50852 11.6792 4.31667L11.6658 4.16667C11.6658 3.94565 11.7536 3.73369 11.9099 3.57741C12.0662 3.42113 12.2782 3.33333 12.4992 3.33333H14.9992V0.833333C14.9992 0.61232 15.087 0.400358 15.2433 0.244078C15.3995 0.0877974 15.6115 4.63505e-08 15.8325 4.63505e-08Z" fill="#757575"/>
</svg>
