<svg width="20" height="18" viewBox="0 0 20 18" fill="none" xmlns="http://www.w3.org/2000/svg">
<path d="M2.22222 3.9375C2.22222 3.42042 2.32281 2.9084 2.51825 2.43068C2.71368 1.95296 3.00013 1.5189 3.36125 1.15327C3.72237 0.787636 4.15108 0.497602 4.6229 0.299724C5.09472 0.101846 5.60042 0 6.11111 0C6.62181 0 7.1275 0.101846 7.59933 0.299724C8.07115 0.497602 8.49985 0.787636 8.86097 1.15327C9.22209 1.5189 9.50854 1.95296 9.70398 2.43068C9.89941 2.9084 10 3.42042 10 3.9375C10 4.45458 9.89941 4.9666 9.70398 5.44432C9.50854 5.92204 9.22209 6.3561 8.86097 6.72173C8.49985 7.08736 8.07115 7.3774 7.59933 7.57528C7.1275 7.77315 6.62181 7.875 6.11111 7.875C5.60042 7.875 5.09472 7.77315 4.6229 7.57528C4.15108 7.3774 3.72237 7.08736 3.36125 6.72173C3.00013 6.3561 2.71368 5.92204 2.51825 5.44432C2.32281 4.9666 2.22222 4.45458 2.22222 3.9375ZM0 15.75C0 12.3328 2.73611 9.5625 6.11111 9.5625C9.48611 9.5625 12.2222 12.3328 12.2222 15.75V15.9609C12.2222 16.7766 11.5694 17.4375 10.7639 17.4375H1.45833C0.652778 17.4375 0 16.7766 0 15.9609V15.75ZM15 1.6875C15.8841 1.6875 16.7319 2.04308 17.357 2.67601C17.9821 3.30895 18.3333 4.16739 18.3333 5.0625C18.3333 5.95761 17.9821 6.81605 17.357 7.44899C16.7319 8.08192 15.8841 8.4375 15 8.4375C14.1159 8.4375 13.2681 8.08192 12.643 7.44899C12.0179 6.81605 11.6667 5.95761 11.6667 5.0625C11.6667 4.16739 12.0179 3.30895 12.643 2.67601C13.2681 2.04308 14.1159 1.6875 15 1.6875ZM15 10.125C17.7604 10.125 20 12.3926 20 15.1875V15.975C20 16.7836 19.3542 17.4375 18.5556 17.4375H13.5278C13.7569 16.998 13.8889 16.4953 13.8889 15.9609V15.75C13.8889 13.9395 13.2847 12.273 12.2743 10.9441C13.059 10.4273 13.9965 10.125 15 10.125Z" fill="#757575"/>
</svg>
