<svg width="25" height="25" viewBox="0 0 25 25" fill="none" xmlns="http://www.w3.org/2000/svg">
<path fill-rule="evenodd" clip-rule="evenodd" d="M8.85421 19.6833V16.6667H6.25004C5.97377 16.6667 5.70882 16.5569 5.51347 16.3616C5.31812 16.1662 5.20837 15.9013 5.20837 15.625V7.29167C5.20837 7.0154 5.31812 6.75045 5.51347 6.5551C5.70882 6.35975 5.97377 6.25 6.25004 6.25H18.75C19.0263 6.25 19.2913 6.35975 19.4866 6.5551C19.682 6.75045 19.7917 7.0154 19.7917 7.29167V15.625C19.7917 15.9013 19.682 16.1662 19.4866 16.3616C19.2913 16.5569 19.0263 16.6667 18.75 16.6667H12.5L9.299 19.8677C9.26258 19.9042 9.21613 19.9291 9.16556 19.9392C9.11498 19.9493 9.06255 19.9441 9.0149 19.9244C8.96726 19.9046 8.92656 19.8712 8.89795 19.8283C8.86934 19.7853 8.85412 19.7349 8.85421 19.6833ZM8.33337 13.0208C8.33337 12.8827 8.38825 12.7502 8.48592 12.6525C8.5836 12.5549 8.71607 12.5 8.85421 12.5H16.1459C16.284 12.5 16.4165 12.5549 16.5142 12.6525C16.6118 12.7502 16.6667 12.8827 16.6667 13.0208C16.6667 13.159 16.6118 13.2914 16.5142 13.3891C16.4165 13.4868 16.284 13.5417 16.1459 13.5417H8.85421C8.71607 13.5417 8.5836 13.4868 8.48592 13.3891C8.38825 13.2914 8.33337 13.159 8.33337 13.0208ZM8.85421 9.375C8.71607 9.375 8.5836 9.42987 8.48592 9.52755C8.38825 9.62522 8.33337 9.7577 8.33337 9.89583C8.33337 10.034 8.38825 10.1664 8.48592 10.2641C8.5836 10.3618 8.71607 10.4167 8.85421 10.4167H16.1459C16.284 10.4167 16.4165 10.3618 16.5142 10.2641C16.6118 10.1664 16.6667 10.034 16.6667 9.89583C16.6667 9.7577 16.6118 9.62522 16.5142 9.52755C16.4165 9.42987 16.284 9.375 16.1459 9.375H8.85421Z" fill="#757575"/>
</svg>
