<svg width="43" height="43" viewBox="0 0 43 43" fill="none" xmlns="http://www.w3.org/2000/svg">
<path d="M21.3438 42.6893C33 42.6893 42.6884 33.0009 42.6884 21.3446C42.6884 9.66786 32.9786 0 21.3223 0C9.64643 0 0 9.66786 0 21.3446C0 33.0009 9.66696 42.6893 21.3438 42.6893ZM16.175 33.775C14.6902 33.775 13.8321 32.9589 13.7688 31.4732L12.9946 14.3973H11.7393C11.463 14.3932 11.1993 14.2816 11.0039 14.0862C10.8086 13.8909 10.697 13.6271 10.6929 13.3509C10.6929 12.7652 11.175 12.3045 11.7393 12.3045H16.4893V10.6098C16.4893 8.97679 17.5571 7.95179 19.1054 7.95179H23.4786C25.0277 7.95179 26.0946 8.97679 26.0946 10.6098V12.3045H30.8446C31.4098 12.3045 31.8705 12.7652 31.8705 13.3509C31.8705 13.9161 31.4098 14.3973 30.8455 14.3973H29.6313L28.8571 31.4732C28.7732 32.9589 27.9152 33.775 26.4295 33.775H16.175ZM18.6036 12.3045H23.9813V11.0071C23.9813 10.442 23.5839 10.0652 22.9973 10.0652H19.5661C19.0009 10.0652 18.6036 10.442 18.6036 11.0071V12.3045ZM17.4518 31.4732C17.9759 31.4732 18.2893 31.117 18.2688 30.6152L17.7661 16.5946C17.7241 16.092 17.4107 15.7571 16.9295 15.7571C16.4062 15.7571 16.0714 16.1134 16.092 16.5946L16.6571 30.6357C16.6777 31.1384 16.992 31.4732 17.4518 31.4732ZM21.3027 31.4518C21.8259 31.4518 22.1607 31.117 22.1607 30.6152V16.5946C22.1607 16.1125 21.8259 15.7571 21.3027 15.7571C20.7795 15.7571 20.4455 16.1134 20.4455 16.5946V30.6152C20.4455 31.117 20.8009 31.4518 21.3027 31.4518ZM25.1741 31.4732C25.6348 31.4732 25.9482 31.1384 25.9688 30.6357L26.5339 16.5946C26.5554 16.1125 26.1991 15.7571 25.6768 15.7571C25.2161 15.7571 24.8813 16.092 24.8598 16.5946L24.358 30.6152C24.3366 31.117 24.6509 31.4732 25.1741 31.4732Z" fill="#FE5081"/>
</svg>
